<svg width="196" height="223" viewBox="0 0 196 223" fill="none" xmlns="http://www.w3.org/2000/svg">
<path fill-rule="evenodd" clip-rule="evenodd" d="M86.7219 3.051C93.7284 -1.017 102.333 -1.017 109.34 3.051L184.691 47.3058C191.698 51.3738 196 59.0167 196 67.2143V155.786C196 164.045 191.698 171.626 184.691 175.694L109.34 219.949C102.333 224.017 93.7284 224.017 86.7219 219.949L11.3089 175.694C4.30229 171.626 0 163.983 0 155.786V67.2143C0 58.9551 4.30229 51.3738 11.3089 47.3058L86.7219 3.051Z" fill="#753BBD"/>
<path d="M98.0305 112.825L122.369 98.5871C121.939 97.1694 121.078 95.9367 119.788 95.1971L100.858 84.0409C99.9973 83.5478 99.0753 83.3013 98.092 83.3013C97.1086 83.3013 96.0637 83.5478 95.1418 84.0409L76.2117 95.1971C74.9211 95.9367 73.9991 97.1694 73.6304 98.5871L97.969 112.825H98.0305Z" fill="#E1E2E1"/>
<path d="M97.9693 112.825L73.6306 98.5874C73.4462 99.1421 73.3848 99.6352 73.3848 100.252V122.379C73.3848 124.475 74.4911 126.324 76.212 127.372L95.0806 138.466C96.0025 139.021 96.9859 139.267 98.0307 139.206V112.825H97.9693Z" fill="white"/>
<path d="M98.0307 112.825L122.369 98.5874C122.554 99.1421 122.615 99.6352 122.615 100.252V122.379C122.615 124.475 121.509 126.324 119.788 127.372L100.919 138.466C99.9975 139.021 99.0141 139.267 97.9692 139.206V112.825H98.0307Z" fill="#DBDADA"/>
<path d="M98.0307 208.238C99.0141 208.238 99.9975 207.991 100.919 207.498L119.727 196.404C121.509 195.356 122.615 193.445 122.615 191.35V146.17C122.615 144.937 122.246 143.766 121.57 142.842C121.202 143.335 120.71 143.828 120.157 144.259L114.256 147.773C114.256 147.773 100.612 155.785 100.551 155.785C99.7516 156.217 98.8912 156.402 97.9692 156.402V208.238H98.0307Z" fill="#DBDADA"/>
<path d="M98.0308 208.238C97.0474 208.238 96.064 207.991 95.1421 207.498L76.335 196.404C74.5526 195.356 73.4463 193.445 73.4463 191.35V169.222C73.4463 169.222 73.4463 168.914 73.4463 168.791V168.359V146.17C73.4463 144.937 73.8151 143.766 74.4911 142.842C74.8599 143.335 75.3516 143.828 75.9047 144.259L81.805 147.773C81.805 147.773 95.4494 155.785 95.5109 155.785C96.3099 156.217 97.1703 156.402 98.0923 156.402V208.238H98.0308Z" fill="white"/>
</svg>
